# xmcd CD database file
#
# Track frame offsets:
#	150
#	17945
#	34105
#	43105
#	68370
#	96040
#	117100
#	143185
#	167527
#	203945
#	231388
#
# Disc length: 3504 seconds
#
# Revision: 0
# Processed by: cddbd v1.5.2PL0 Copyright (c) Steve Scherf et al.
# Submitted via: CDex 1.51
#
DISCID=900dae0b
DTITLE=Various Artist - Snowboy Presents The Hi-Hat - The True Jazz Dance
DYEAR=1900
DGENRE=Jazz
TTITLE0=Dionne Warwick - Caravan
TTITLE1=Pete Escovedo - Cabo Frio
TTITLE2=Duke Pearson - Upa Neguinho
TTITLE3=Horace Silver - Not Enough Mama
TTITLE4=Bob Berg - You And The Night And The Music
TTITLE5=Jon Lucien - A Time For Me To Fly
TTITLE6=Negrocan - Brasil Nago
TTITLE7=Grupo X (Feat Lisa Miller) - Brand New Love
TTITLE8=Root Source - Beyond The Haze
TTITLE9=Snowboy - Casa Forte
TTITLE10=Sirius B - Watermelon Man
EXTD=
EXTT0=
EXTT1=
EXTT2=
EXTT3=
EXTT4=
EXTT5=
EXTT6=
EXTT7=
EXTT8=
EXTT9=
EXTT10=
PLAYORDER=
